<?xml version="1.0" encoding="UTF-8"?>
<svg xmlns="http://www.w3.org/2000/svg" xmlns:xlink="http://www.w3.org/1999/xlink" width="535px" height="150px" viewBox="0 0 534 150" version="1.1">
<g id="surface1">
<path style=" stroke:none;fill-rule:nonzero;fill:rgb(100%,100%,100%);fill-opacity:1;" d="M 76.226562 0 L 91.660156 0 L 91.660156 67.433594 C 91.660156 79.175781 90.335938 88.488281 87.6875 95.378906 C 85.039062 102.273438 80.25 107.878906 73.328125 112.207031 C 66.425781 116.53125 57.351562 118.695312 46.105469 118.695312 C 35.1875 118.695312 26.253906 116.816406 19.308594 113.054688 C 12.363281 109.292969 7.414062 103.835938 4.460938 96.683594 C 1.488281 89.554688 0 79.804688 0 67.433594 L 0 0 L 15.433594 0 L 15.433594 67.371094 C 15.433594 77.5 16.367188 84.96875 18.234375 89.773438 C 20.121094 94.574219 23.355469 98.28125 27.9375 100.890625 C 32.515625 103.476562 38.128906 104.773438 44.769531 104.773438 C 56.101562 104.773438 64.175781 102.195312 68.996094 97.042969 C 73.816406 91.914062 76.226562 82.023438 76.226562 67.371094 Z M 115.492188 149.121094 L 115.492188 32.183594 L 128.550781 32.183594 L 128.550781 43.175781 C 131.613281 38.871094 135.085938 35.640625 138.96875 33.488281 C 142.835938 31.335938 147.523438 30.261719 153.035156 30.261719 C 160.242188 30.261719 166.605469 32.121094 172.117188 35.835938 C 177.632812 39.554688 181.789062 44.792969 184.589844 51.554688 C 187.386719 58.316406 188.789062 65.726562 188.789062 73.792969 C 188.789062 82.445312 187.246094 90.238281 184.164062 97.175781 C 181.0625 104.109375 176.546875 109.414062 170.621094 113.085938 C 164.714844 116.78125 158.507812 118.628906 151.996094 118.628906 C 147.21875 118.628906 142.941406 117.621094 139.164062 115.597656 C 135.367188 113.574219 132.25 111.03125 129.820312 107.96875 L 129.820312 149.121094 L 115.492188 149.121094 M 128.453125 74.933594 C 128.453125 85.804688 130.65625 93.835938 135.0625 99.03125 C 139.46875 104.25 144.796875 106.859375 151.050781 106.859375 C 157.410156 106.859375 162.847656 104.164062 167.363281 98.773438 C 171.898438 93.378906 174.167969 85.03125 174.167969 73.726562 C 174.167969 62.945312 171.953125 54.878906 167.527344 49.53125 C 163.097656 44.164062 157.8125 41.476562 151.667969 41.476562 C 145.570312 41.476562 140.175781 44.335938 135.484375 50.054688 C 130.796875 55.75 128.453125 64.042969 128.453125 74.933594 Z M 229.488281 116.707031 L 197.382812 32.183594 L 212.492188 32.183594 L 230.628906 82.792969 C 232.582031 88.273438 234.382812 93.957031 236.035156 99.847656 C 237.292969 95.390625 239.0625 90.03125 241.34375 83.773438 L 260.097656 32.183594 L 274.816406 32.183594 L 242.839844 116.707031 Z M 342.542969 106.304688 C 337.246094 110.804688 332.144531 113.988281 327.238281 115.859375 C 322.332031 117.707031 317.066406 118.628906 311.445312 118.628906 C 302.175781 118.628906 295.058594 116.359375 290.085938 111.816406 C 285.09375 107.273438 282.597656 101.476562 282.597656 94.433594 C 282.597656 90.28125 283.539062 86.5 285.429688 83.085938 C 287.316406 79.652344 289.78125 76.902344 292.820312 74.835938 C 295.859375 72.773438 299.289062 71.207031 303.109375 70.140625 C 305.910156 69.402344 310.152344 68.683594 315.839844 67.988281 C 327.390625 66.621094 335.886719 64.976562 341.335938 63.066406 C 341.402344 61.109375 341.433594 59.859375 341.433594 59.316406 C 341.433594 53.488281 340.078125 49.378906 337.363281 46.988281 C 333.71875 43.75 328.289062 42.128906 321.082031 42.128906 C 314.355469 42.128906 309.382812 43.304688 306.171875 45.652344 C 302.957031 48.023438 300.59375 52.207031 299.074219 58.207031 L 285.070312 56.28125 C 286.332031 50.28125 288.425781 45.445312 291.355469 41.773438 C 294.265625 38.074219 298.476562 35.238281 303.988281 33.261719 C 309.503906 31.261719 315.886719 30.261719 323.136719 30.261719 C 330.34375 30.261719 336.203125 31.109375 340.71875 32.804688 C 345.210938 34.5 348.523438 36.640625 350.648438 39.226562 C 352.777344 41.792969 354.261719 45.042969 355.109375 48.976562 C 355.585938 51.414062 355.828125 55.816406 355.828125 62.183594 L 355.828125 81.292969 C 355.828125 94.621094 356.128906 103.042969 356.738281 106.566406 C 357.347656 110.085938 358.550781 113.46875 360.351562 116.707031 L 345.40625 116.707031 C 343.929688 113.75 342.976562 110.28125 342.542969 106.304688 M 341.335938 74.28125 C 336.148438 76.414062 328.367188 78.21875 317.992188 79.695312 C 312.109375 80.542969 307.941406 81.5 305.488281 82.566406 C 303.054688 83.628906 301.179688 85.183594 299.855469 87.226562 C 298.53125 89.273438 297.867188 91.542969 297.867188 94.042969 C 297.867188 97.847656 299.3125 101.03125 302.199219 103.597656 C 305.085938 106.140625 309.308594 107.414062 314.863281 107.414062 C 320.378906 107.414062 325.285156 106.207031 329.582031 103.792969 C 333.878906 101.378906 337.039062 98.074219 339.058594 93.878906 C 340.578125 90.640625 341.335938 85.859375 341.335938 79.53125 Z M 401.445312 116.707031 L 369.339844 32.183594 L 384.449219 32.183594 L 402.550781 82.792969 C 404.527344 88.273438 406.328125 93.957031 407.957031 99.847656 C 409.238281 95.390625 411.015625 90.03125 413.296875 83.773438 L 432.050781 32.183594 L 446.769531 32.183594 L 414.792969 116.707031 Z M 517.199219 89.476562 L 531.980469 91.335938 C 529.636719 99.988281 525.316406 106.695312 519.023438 111.457031 C 512.707031 116.238281 504.652344 118.628906 494.863281 118.628906 C 482.511719 118.628906 472.71875 114.824219 465.492188 107.21875 C 458.242188 99.585938 454.617188 88.902344 454.617188 75.164062 C 454.617188 60.945312 458.273438 49.902344 465.589844 42.03125 C 472.90625 34.183594 482.390625 30.261719 494.046875 30.261719 C 505.335938 30.261719 514.5625 34.109375 521.722656 41.804688 C 528.886719 49.5 532.46875 60.324219 532.46875 74.28125 C 532.46875 75.128906 532.4375 76.402344 532.371094 78.097656 L 469.429688 78.097656 C 469.953125 87.402344 472.566406 94.523438 477.277344 99.457031 C 481.988281 104.390625 487.871094 106.859375 494.925781 106.859375 C 500.179688 106.859375 504.664062 105.476562 508.375 102.71875 C 512.085938 99.957031 515.027344 95.542969 517.199219 89.476562 M 470.214844 66.324219 L 517.363281 66.324219 C 516.710938 59.21875 514.910156 53.878906 511.957031 50.316406 C 507.398438 44.792969 501.484375 42.03125 494.210938 42.03125 C 487.632812 42.03125 482.109375 44.238281 477.636719 48.652344 C 473.164062 53.066406 470.691406 58.957031 470.214844 66.324219 Z M 470.214844 66.324219 "/>
</g>
</svg>
