<svg xmlns="http://www.w3.org/2000/svg" viewBox="0 20 210.89999389648438 153.64999389648438" data-asc="1.065" width="210.89999389648438" height="153.64999389648438"><defs/><g fill="#ffffff"><g transform="translate(0, 0)"><path d="M21.05 20L35.55 20L35.55 25.35L35.50 36.05L35.50 41.40Q35.50 43.90 35.55 46.45Q35.60 49 35.50 51.50Q35.50 52.05 34.55 52.40Q33.60 52.75 32.27 52.92Q30.95 53.10 29.80 53.17Q28.65 53.25 28.25 53.25L7.25 53.25Q6.80 53.25 5.65 53.17Q4.50 53.10 3.20 52.92Q1.90 52.75 0.95 52.40Q0 52.05 0 51.50L0 20L14.50 20L14.50 49.75L21 49.75Q21 42.30 21 34.85Q21 27.40 21.05 20ZM52.60 61.50L38.60 61.50L38.60 29.95Q38.60 29.40 39.50 29.07Q40.40 28.75 41.68 28.57Q42.95 28.40 44.08 28.32Q45.20 28.25 45.60 28.25L63.60 28.25Q64 28.25 65.13 28.32Q66.25 28.40 67.53 28.57Q68.80 28.75 69.70 29.07Q70.60 29.40 70.60 29.95L70.60 51.55Q70.60 52.05 69.70 52.40Q68.80 52.75 67.53 52.92Q66.25 53.10 65.13 53.17Q64 53.25 63.60 53.25L59.55 53.25Q59.05 53.25 58 53.20Q56.95 53.15 55.80 52.98Q54.65 52.80 53.75 52.50Q52.85 52.20 52.60 51.75L52.60 61.50M52.60 49.85L56.60 49.85L56.60 31.65L52.60 31.65L52.60 49.85ZM73.60 28.25L87.65 28.25L87.65 49.85L88.80 49.85L91.60 47.05L91.60 28.25L105.60 28.25L105.60 47.25Q105.60 47.40 104.95 48.10Q104.30 48.80 103.45 49.67Q102.60 50.55 101.88 51.25Q101.15 51.95 101 52.05Q100.35 52.55 99.07 52.80Q97.80 53.05 96.47 53.15Q95.15 53.25 94.30 53.25L80.60 53.25Q80.20 53.25 79.07 53.17Q77.95 53.10 76.67 52.92Q75.40 52.75 74.50 52.40Q73.60 52.05 73.60 51.55L73.60 28.25ZM109.55 31.65L109.55 28.25L134.05 28.25Q134.45 28.25 135.57 28.32Q136.70 28.40 137.97 28.57Q139.25 28.75 140.15 29.07Q141.05 29.40 141.05 29.95L141.05 51.55Q141.05 52.05 140.15 52.40Q139.25 52.75 137.97 52.92Q136.70 53.10 135.57 53.17Q134.45 53.25 134.05 53.25L115.60 53.25Q115.20 53.25 114.07 53.17Q112.95 53.10 111.67 52.92Q110.40 52.75 109.50 52.40Q108.60 52.05 108.60 51.55L108.60 37.80Q108.60 37.25 109.50 36.92Q110.40 36.60 111.67 36.42Q112.95 36.25 114.07 36.17Q115.20 36.10 115.60 36.10L120.05 36.10Q120.60 36.10 121.63 36.15Q122.65 36.20 123.80 36.38Q124.95 36.55 125.85 36.85Q126.75 37.15 127 37.60Q127.05 37.65 127.05 37.80L127.05 31.65L109.55 31.65M127.05 39.50L122.60 39.50L122.60 49.85L127.05 49.85L127.05 39.50ZM143.90 28.25L157.95 28.25L157.95 49.85L159.10 49.85L161.90 47.05L161.90 28.25L175.90 28.25L175.90 47.25Q175.90 47.40 175.25 48.10Q174.60 48.80 173.75 49.67Q172.90 50.55 172.18 51.25Q171.45 51.95 171.30 52.05Q170.65 52.55 169.38 52.80Q168.10 53.05 166.78 53.15Q165.45 53.25 164.60 53.25L150.90 53.25Q150.50 53.25 149.38 53.17Q148.25 53.10 146.97 52.92Q145.70 52.75 144.80 52.40Q143.90 52.05 143.90 51.55L143.90 28.25ZM210.40 49.85L210.40 53.25L185.90 53.25Q185.50 53.25 184.38 53.17Q183.25 53.10 181.97 52.92Q180.70 52.75 179.80 52.40Q178.90 52.05 178.90 51.55L178.90 29.95Q178.90 29.40 179.80 29.07Q180.70 28.75 181.97 28.57Q183.25 28.40 184.38 28.32Q185.50 28.25 185.90 28.25L203.90 28.25Q204.30 28.25 205.43 28.32Q206.55 28.40 207.83 28.57Q209.10 28.75 210 29.07Q210.90 29.40 210.90 29.95L210.90 44.45Q210.90 44.95 210 45.30Q209.10 45.65 207.83 45.83Q206.55 46 205.43 46.08Q204.30 46.15 203.90 46.15L199.85 46.15Q199.35 46.15 198.30 46.10Q197.25 46.05 196.10 45.88Q194.95 45.70 194.05 45.40Q193.15 45.10 192.90 44.65L192.90 49.85L210.40 49.85M192.90 42.75L196.90 42.75L196.90 31.65L192.90 31.65L192.90 42.75Z"/></g><g transform="translate(0, 60.199999999999996)"><path d="M25.85 53.25L11.35 53.25L11.35 43.75Q11.35 43.25 12.20 42.90Q13.05 42.55 14.05 42.30Q15.05 42.05 15.40 41.95L22 40.05L22 20L36.50 20L36.50 40.70Q36.50 41.15 35.65 41.52Q34.80 41.90 33.83 42.15Q32.85 42.40 32.45 42.50L25.85 44.40L25.85 53.25M0 20L14.50 20L14.50 40.50L7.25 40.50Q6.80 40.50 5.65 40.42Q4.50 40.35 3.20 40.17Q1.90 40 0.95 39.65Q0 39.30 0 38.75L0 20ZM64.50 53.25L46.50 53.25Q46.10 53.25 44.98 53.17Q43.85 53.10 42.58 52.92Q41.30 52.75 40.40 52.40Q39.50 52.05 39.50 51.55L39.50 29.95Q39.50 29.40 40.40 29.07Q41.30 28.75 42.58 28.57Q43.85 28.40 44.98 28.32Q46.10 28.25 46.50 28.25L64.50 28.25Q64.90 28.25 66.03 28.32Q67.15 28.40 68.42 28.57Q69.70 28.75 70.60 29.07Q71.50 29.40 71.50 29.95L71.50 51.55Q71.50 52.05 70.60 52.40Q69.70 52.75 68.42 52.92Q67.15 53.10 66.03 53.17Q64.90 53.25 64.50 53.25M53.50 49.85L57.50 49.85L57.50 31.65L53.50 31.65L53.50 49.85ZM74.50 28.25L88.50 28.25L88.50 49.85L92.50 49.85L92.50 28.25L106.50 28.25L106.50 51.55Q106.50 52.05 105.60 52.40Q104.70 52.75 103.42 52.92Q102.15 53.10 101.03 53.17Q99.90 53.25 99.50 53.25L81.50 53.25Q81.10 53.25 79.97 53.17Q78.85 53.10 77.58 52.92Q76.30 52.75 75.40 52.40Q74.50 52.05 74.50 51.55L74.50 28.25ZM123.50 53.25L109.50 53.25L109.50 29.95Q109.50 29.40 110.40 29.07Q111.30 28.75 112.58 28.57Q113.85 28.40 114.97 28.32Q116.10 28.25 116.50 28.25L131.55 28.25L131.55 31.65L123.50 31.65L123.50 53.25Z"/></g><g transform="translate(0, 120.39999999999999)"><path d="M14.50 53.25L0 53.25L0 21.75Q0 21.20 0.95 20.85Q1.90 20.50 3.20 20.32Q4.50 20.15 5.65 20.07Q6.80 20 7.25 20L27.25 20L27.25 23.50L14.50 23.50L14.50 35.20L26.70 35.20L26.70 38.70L14.50 38.70L14.50 53.25ZM29.75 28.25L43.75 28.25L43.75 49.85L47.75 49.85L47.75 28.25L61.75 28.25L61.75 51.55Q61.75 52.05 60.85 52.40Q59.95 52.75 58.67 52.92Q57.40 53.10 56.28 53.17Q55.15 53.25 54.75 53.25L36.75 53.25Q36.35 53.25 35.23 53.17Q34.10 53.10 32.83 52.92Q31.55 52.75 30.65 52.40Q29.75 52.05 29.75 51.55L29.75 28.25ZM64.75 32.65L64.75 29.25L69.25 29.25L69.25 22.25L82.25 22.25L82.25 29.25L88.25 29.25L88.25 32.65L82.25 32.65L82.25 49.85L88.25 49.85L88.25 53.25L75.25 53.25Q74.85 53.25 73.72 53.17Q72.60 53.10 71.33 52.92Q70.05 52.75 69.15 52.40Q68.25 52.05 68.25 51.55L68.25 34.80Q68.25 34.35 68.92 34.05Q69.60 33.75 70.60 33.58Q71.60 33.40 72.63 33.30Q73.65 33.20 74.40 33.15L74.40 32.65L64.75 32.65ZM91.25 28.25L105.25 28.25L105.25 49.85L109.25 49.85L109.25 28.25L123.25 28.25L123.25 51.55Q123.25 52.05 122.35 52.40Q121.45 52.75 120.17 52.92Q118.90 53.10 117.78 53.17Q116.65 53.25 116.25 53.25L98.25 53.25Q97.85 53.25 96.72 53.17Q95.60 53.10 94.33 52.92Q93.05 52.75 92.15 52.40Q91.25 52.05 91.25 51.55L91.25 28.25ZM140.25 53.25L126.25 53.25L126.25 29.95Q126.25 29.40 127.15 29.07Q128.05 28.75 129.32 28.57Q130.60 28.40 131.72 28.32Q132.85 28.25 133.25 28.25L148.30 28.25L148.30 31.65L140.25 31.65L140.25 53.25ZM182.30 49.85L182.30 53.25L157.80 53.25Q157.40 53.25 156.28 53.17Q155.15 53.10 153.88 52.92Q152.60 52.75 151.70 52.40Q150.80 52.05 150.80 51.55L150.80 29.95Q150.80 29.40 151.70 29.07Q152.60 28.75 153.88 28.57Q155.15 28.40 156.28 28.32Q157.40 28.25 157.80 28.25L175.80 28.25Q176.20 28.25 177.33 28.32Q178.45 28.40 179.73 28.57Q181 28.75 181.90 29.07Q182.80 29.40 182.80 29.95L182.80 44.45Q182.80 44.95 181.90 45.30Q181 45.65 179.73 45.83Q178.45 46 177.33 46.08Q176.20 46.15 175.80 46.15L171.75 46.15Q171.25 46.15 170.20 46.10Q169.15 46.05 168 45.88Q166.85 45.70 165.95 45.40Q165.05 45.10 164.80 44.65L164.80 49.85L182.30 49.85M164.80 42.75L168.80 42.75L168.80 31.65L164.80 31.65L164.80 42.75Z"/></g></g></svg>