<svg xmlns="http://www.w3.org/2000/svg" viewBox="0 7.099999904632568 121.80000305175781 139.5159912109375" data-asc="0.883" width="121.80000305175781" height="139.5159912109375"><defs/><g fill="#fdfcfc"><g transform="translate(0, 0)"><path d="M6.70 45.05Q5.20 45.05 3.65 44.40Q2.10 43.75 1.05 42.40Q0 41.05 0 38.95L0 38.55Q0 38.30 0.05 38.15Q0.20 36.85 0.47 34.75Q0.75 32.65 1.15 30.17Q1.55 27.70 1.98 25.25Q2.40 22.80 2.75 20.80Q3.50 16.80 3.95 14.35Q4.40 11.90 4.68 10.57Q4.95 9.25 5.10 8.60L13.35 7.80Q12.70 10.85 12.13 13.57Q11.55 16.30 11.05 18.75L8.75 29.80Q8.45 31.05 8.30 31.90Q8.10 32.70 7.88 33.92Q7.65 35.15 7.65 36.15Q7.65 36.95 8.05 37.47Q8.45 38 9.05 38Q9.90 38 10.45 37.35Q11 36.70 11.35 35.75Q11.70 34.80 11.90 33.82Q12.10 32.85 12.25 32.25Q12.75 29.95 13.18 27.77Q13.60 25.60 14.07 23.15Q14.55 20.70 15.15 17.50Q15.55 15.30 15.98 13.02Q16.40 10.75 16.80 8.40L24.40 7.90L22.65 17.55Q22.30 19.40 21.88 21.70Q21.45 24.00 20.95 26.35Q20.45 28.70 20.03 30.80Q19.60 32.90 19.25 34.40Q18.25 38.50 16.15 40.82Q14.05 43.15 11.53 44.10Q9 45.05 6.70 45.05ZM19.25 44.20Q20.75 37.45 22.10 31Q22.65 28.40 23.23 25.42Q23.80 22.45 24.40 19.40Q25.00 16.35 25.50 13.62Q26.00 10.90 26.30 8.85Q28.30 8.25 30.63 7.75Q32.95 7.25 34.80 7.25Q37.80 7.25 39.55 8.52Q41.30 9.80 42.05 11.95Q42.80 14.10 42.80 16.65Q42.80 19.45 41.78 22.02Q40.75 24.60 39.03 26.65Q37.30 28.70 35.08 29.90Q32.85 31.10 30.45 31.10L29.90 31.10Q29.50 32.80 29.15 34.80Q28.80 36.80 28.55 38.50Q28.35 39.50 28.20 40.50Q28.05 41.50 27.90 42.50L19.25 44.20M30.90 25.85Q32.05 25.55 33.20 24.32Q34.35 23.10 35.10 21.20Q35.85 19.30 35.85 17.05Q35.85 15.20 35.03 14.25Q34.20 13.30 33.20 13.30Q32.65 16.60 32.10 19.55Q31.55 22.50 30.90 25.85ZM41.30 44.60Q41.65 41.10 41.95 37.65Q42.25 34.20 42.50 30.85Q43.05 24.75 43.38 18.85Q43.70 12.95 43.80 7.80Q47.70 7.80 49.65 7.63Q51.60 7.45 51.60 7.45Q51.35 10.35 51.10 12.72Q50.85 15.10 50.65 16.95L50.05 23.00Q49.80 25.75 49.63 27.65Q49.45 29.55 49.30 31.15Q49.15 32.75 48.90 34.65L49.80 34.65L55.40 8.05L58.15 7.90Q58.80 7.85 59.45 7.82Q60.10 7.80 60.80 7.75Q61.50 7.70 62.13 7.65Q62.75 7.60 63.30 7.55Q62.35 10.50 61.38 14.15Q60.40 17.80 59.43 21.70Q58.45 25.60 57.45 29.40Q56.65 32.60 55.85 35.92Q55.05 39.25 54.25 42.65L41.30 44.60ZM70.25 44.05Q70.35 43.20 70.45 42.40Q70.55 41.60 70.65 40.80L70.95 38Q71 37.30 71.05 36.70Q71.10 36.10 71.15 35.60L66.80 35.60L64.80 42.80Q63.70 42.95 62.20 43.13Q60.70 43.30 59.40 43.45Q58.60 43.55 57.82 43.65Q57.05 43.75 56.25 43.85L60.20 30.75Q60.90 28.40 61.80 25.40Q62.70 22.40 63.63 19.25Q64.55 16.10 65.38 13.32Q66.20 10.55 66.70 8.65Q70.10 8.40 73.63 8.05Q77.15 7.70 80.50 7.10Q80.25 9.90 80.03 13.42Q79.80 16.95 79.63 20.70Q79.45 24.45 79.25 28.10Q79.15 31.55 79 35.22Q78.85 38.90 78.70 42.75Q77.95 42.85 77.20 42.95Q76.45 43.05 75.70 43.15Q74.45 43.35 72.95 43.60Q71.45 43.85 70.25 44.05M68 30.60Q68.30 30.60 69.13 30.55Q69.95 30.50 70.70 30.45Q71.45 30.40 71.60 30.40Q71.60 29.75 71.80 27.75Q72 25.75 72.20 23.55Q72.30 22.25 72.42 20.87Q72.55 19.50 72.70 18.05L73 13.70L72.25 13.75L71.10 18.05L68 30.60ZM81.90 44.60Q82.25 41.10 82.55 37.65Q82.85 34.20 83.10 30.85Q83.65 24.75 83.98 18.85Q84.30 12.95 84.40 7.80Q88.30 7.80 90.25 7.63Q92.20 7.45 92.20 7.45Q91.95 10.35 91.70 12.72Q91.45 15.10 91.25 16.95L90.65 23.00Q90.40 25.75 90.23 27.65Q90.05 29.55 89.90 31.15Q89.75 32.75 89.50 34.65L90.40 34.65L96 8.05L98.75 7.90Q99.40 7.85 100.05 7.82Q100.70 7.80 101.40 7.75Q102.10 7.70 102.73 7.65Q103.35 7.60 103.90 7.55Q102.95 10.50 101.98 14.15Q101 17.80 100.03 21.70Q99.05 25.60 98.05 29.40Q97.25 32.60 96.45 35.92Q95.65 39.25 94.85 42.65L81.90 44.60ZM98.30 44.20L104.85 8.65L120.65 7.30Q120.30 8.40 120.05 9.55Q119.80 10.50 119.58 11.52Q119.35 12.55 119.20 13.35Q118.55 13.40 117.35 13.42Q116.15 13.45 114.90 13.47Q113.65 13.50 112.75 13.50Q111.85 13.50 111.80 13.50L110.05 22.45L112.95 22.30Q113.50 22.25 114.08 22.25Q114.65 22.25 115.20 22.25Q115.75 22.25 116.20 22.25Q116.65 22.25 116.90 22.20Q116.80 22.90 116.73 23.57Q116.65 24.25 116.55 24.95L116.10 27.70Q115.85 27.75 115.45 27.75Q115.05 27.75 114.50 27.75Q113.95 27.80 113.35 27.80Q112.75 27.80 112.20 27.85Q111.55 27.90 110.85 27.90Q110.15 27.90 109.35 27.95L107.65 37.15L114.95 36L114.45 41.70L98.30 44.20Z"/></g><g transform="translate(0, 50.782999999999994)"><path d="M0 43.40L2.30 33.35Q2.30 29.80 2.13 26.07Q1.95 22.35 1.70 18.65Q1.50 14.95 1.33 12.70Q1.15 10.45 1.15 10.45L9.30 7.35L9.30 13.45Q9.30 16.35 9.28 18.67Q9.25 21.00 9.25 22.75Q9.90 21.05 10.83 18.55Q11.75 16.05 12.55 13.70Q13.05 12.30 13.53 10.88Q14.00 9.45 14.50 7.90L22.25 9.65Q20.10 13.90 18.05 18.20Q16.85 20.85 15.43 23.77Q14.00 26.70 12.78 29.22Q11.55 31.75 10.85 33.25Q10.60 34.55 10.23 36.10Q9.85 37.65 9.50 39.05Q9.30 39.85 9.05 40.67Q8.80 41.50 8.55 42.35L0 43.40ZM24.40 44.35Q21.10 44.35 19.00 41.80Q16.90 39.25 16.90 34.10Q16.90 31.25 17.60 28.10Q18.30 24.95 19.55 21.90Q20.80 18.85 22.45 16.25Q25.10 12.05 28.55 9.40Q32.00 6.75 35.80 6.75Q38.80 6.75 40.43 8.27Q42.05 9.80 42.70 12.17Q43.35 14.55 43.35 17.10Q43.35 23.05 41.53 28.17Q39.70 33.30 36.80 36.85Q33.90 40.50 30.63 42.42Q27.35 44.35 24.40 44.35M27.10 36.10Q29.35 36.10 31.08 34.60Q32.80 33.10 34.00 30.77Q35.20 28.45 35.80 25.90Q36.40 23.35 36.40 21.30Q36.40 20.50 36.25 19.57Q36.10 18.65 35.60 17.95Q35.10 17.25 34.05 17.25Q31.75 17.25 29.90 18.92Q28.05 20.60 26.80 23.15Q25.55 25.75 24.95 28.25Q24.35 30.75 24.35 32.80Q24.35 33.85 25.10 34.97Q25.85 36.10 27.10 36.10ZM48.25 45.05Q46.75 45.05 45.20 44.40Q43.65 43.75 42.60 42.40Q41.55 41.05 41.55 38.95L41.55 38.55Q41.55 38.30 41.60 38.15Q41.75 36.85 42.03 34.75Q42.30 32.65 42.70 30.17Q43.10 27.70 43.53 25.25Q43.95 22.80 44.30 20.80Q45.05 16.80 45.50 14.35Q45.95 11.90 46.23 10.57Q46.50 9.25 46.65 8.60Q47.20 8.55 47.83 8.47Q48.45 8.40 49.15 8.35Q49.85 8.25 50.53 8.20Q51.20 8.15 51.85 8.10L54.90 7.80Q54.25 10.85 53.68 13.57Q53.10 16.30 52.60 18.75L50.30 29.80Q50.00 31.05 49.85 31.90Q49.65 32.70 49.43 33.92Q49.20 35.15 49.20 36.15Q49.20 36.95 49.60 37.47Q50.00 38 50.60 38Q51.45 38 52.00 37.35Q52.55 36.70 52.90 35.75Q53.25 34.80 53.45 33.82Q53.65 32.85 53.80 32.25Q54.30 29.95 54.73 27.77Q55.15 25.60 55.63 23.15Q56.10 20.70 56.70 17.50Q57.10 15.30 57.53 13.02Q57.95 10.75 58.35 8.40L65.95 7.90Q65.95 7.90 65.50 10.30Q65.05 12.70 64.20 17.55Q63.85 19.40 63.43 21.70Q63.00 24.00 62.50 26.35Q62.00 28.70 61.58 30.80Q61.15 32.90 60.80 34.40Q59.80 38.50 57.70 40.82Q55.60 43.15 53.08 44.10Q50.55 45.05 48.25 45.05ZM61.15 44.20L63.75 31.20Q64.35 27.60 65.05 23.80Q65.75 20.00 66.38 16.30Q67.00 12.60 67.35 9.35Q70.20 8.45 73.50 8.02Q76.80 7.60 80.05 7.60Q83.85 7.60 85.23 9.25Q86.60 10.90 86.60 13.70Q86.60 16.25 85.40 18.82Q84.20 21.40 82.28 23.47Q80.35 25.55 78.05 26.75Q78.95 28.75 79.98 31.13Q81.00 33.50 81.90 35.65Q82.40 36.90 82.93 38.15Q83.45 39.40 83.95 40.65L76.20 43.35L74.40 37.35Q73.65 34.85 73.03 32.52Q72.40 30.20 72.30 29.25L71.65 29.45Q71.50 30.25 71.33 31.17Q71.15 32.10 70.95 33.20Q70.75 34.30 70.55 35.32Q70.35 36.35 70.15 37.35L69.25 42.10L61.15 44.20M72.90 22.50Q73.80 22.40 75.13 21.72Q76.45 21.05 77.78 20.05Q79.10 19.05 80.00 18.00Q80.90 16.95 80.90 16.15Q80.90 15.15 79.73 14.82Q78.55 14.50 76.65 14.50L75.55 14.50Q75.25 14.55 75.00 14.55Q74.75 14.55 74.50 14.55L72.90 22.50Z"/></g><g transform="translate(0, 101.56599999999999)"><path d="M0 44.20Q0.70 41.80 1.35 38.72Q2 35.65 2.58 32.45Q3.15 29.25 3.65 26.50Q4.15 23.75 4.45 21.95Q5 18.60 5.53 15.17Q6.05 11.75 6.55 8.20L23.30 7.35L21.85 13.50L14.00 13.50L12.45 22.40Q13.25 22.35 13.98 22.35Q14.70 22.35 15.40 22.35L17.75 22.35Q18.35 22.35 18.80 22.35Q19.25 22.35 19.60 22.30Q19.55 23.00 19.45 23.67Q19.35 24.35 19.25 25.05L18.80 27.75Q17.75 27.75 15.78 27.67Q13.80 27.60 11.60 27.55L9.30 42.30Q8.45 42.45 7.63 42.60Q6.80 42.75 5.95 42.95Q4.55 43.20 2.90 43.55Q1.25 43.90 0 44.20ZM25.10 45.05Q23.60 45.05 22.05 44.40Q20.50 43.75 19.45 42.40Q18.40 41.05 18.40 38.95L18.40 38.55Q18.40 38.30 18.45 38.15Q18.60 36.85 18.88 34.75Q19.15 32.65 19.55 30.17Q19.95 27.70 20.38 25.25Q20.80 22.80 21.15 20.80Q21.90 16.80 22.35 14.35Q22.80 11.90 23.08 10.57Q23.35 9.25 23.50 8.60Q24.05 8.55 24.68 8.47Q25.30 8.40 26 8.35Q26.70 8.25 27.38 8.20Q28.05 8.15 28.70 8.10L31.75 7.80Q31.10 10.85 30.53 13.57Q29.95 16.30 29.45 18.75L27.15 29.80Q26.85 31.05 26.70 31.90Q26.50 32.70 26.28 33.92Q26.05 35.15 26.05 36.15Q26.05 36.95 26.45 37.47Q26.85 38 27.45 38Q28.30 38 28.85 37.35Q29.40 36.70 29.75 35.75Q30.10 34.80 30.30 33.82Q30.50 32.85 30.65 32.25Q31.15 29.95 31.58 27.77Q32 25.60 32.48 23.15Q32.95 20.70 33.55 17.50Q33.95 15.30 34.38 13.02Q34.80 10.75 35.20 8.40L42.80 7.90Q42.80 7.90 42.35 10.30Q41.90 12.70 41.05 17.55Q40.70 19.40 40.28 21.70Q39.85 24.00 39.35 26.35Q38.85 28.70 38.43 30.80Q38 32.90 37.65 34.40Q36.65 38.50 34.55 40.82Q32.45 43.15 29.93 44.10Q27.40 45.05 25.10 45.05ZM42.30 44.20Q42.85 41.45 43.43 38.72Q44.00 36 44.50 33.35Q46.40 23.85 47.60 15.15Q47.05 15.05 46.45 15.02Q45.85 15.00 45.30 15.05Q44.10 15.15 42.95 14.75Q43.00 14.35 43.00 13.87Q43.00 13.40 43.00 12.90Q43.00 12.35 43.00 11.82Q43.00 11.30 43.05 10.80Q43.10 10.25 43.10 9.63Q43.10 9 43.15 8.35Q44.45 8.45 45.75 8.50Q47.05 8.55 48.35 8.55Q52.05 8.55 55.43 8.30Q58.80 8.05 61.65 7.70L61.10 10.40L60.65 12.75Q60.40 14.05 60.20 14.80Q59.65 14.95 59.10 15.05Q58.55 15.15 58.00 15.20Q57.45 15.25 56.88 15.35Q56.30 15.45 55.75 15.55Q55 19.25 54.53 21.95Q54.05 24.65 53.68 27.12Q53.30 29.60 52.80 32.55Q51.95 37.60 51.30 42.80L42.30 44.20ZM64.15 45.05Q62.65 45.05 61.10 44.40Q59.55 43.75 58.50 42.40Q57.45 41.05 57.45 38.95L57.45 38.55Q57.45 38.30 57.50 38.15Q57.65 36.85 57.93 34.75Q58.20 32.65 58.60 30.17Q59.00 27.70 59.43 25.25Q59.85 22.80 60.20 20.80Q60.95 16.80 61.40 14.35Q61.85 11.90 62.13 10.57Q62.40 9.25 62.55 8.60Q63.10 8.55 63.73 8.47Q64.35 8.40 65.05 8.35Q65.75 8.25 66.43 8.20Q67.10 8.15 67.75 8.10L70.80 7.80Q70.15 10.85 69.58 13.57Q69 16.30 68.50 18.75L66.20 29.80Q65.90 31.05 65.75 31.90Q65.55 32.70 65.33 33.92Q65.10 35.15 65.10 36.15Q65.10 36.95 65.50 37.47Q65.90 38 66.50 38Q67.35 38 67.90 37.35Q68.45 36.70 68.80 35.75Q69.15 34.80 69.35 33.82Q69.55 32.85 69.70 32.25Q70.20 29.95 70.63 27.77Q71.05 25.60 71.53 23.15Q72 20.70 72.60 17.50Q73 15.30 73.43 13.02Q73.85 10.75 74.25 8.40L81.85 7.90Q81.85 7.90 81.40 10.30Q80.95 12.70 80.10 17.55Q79.75 19.40 79.33 21.70Q78.90 24.00 78.40 26.35Q77.90 28.70 77.48 30.80Q77.05 32.90 76.70 34.40Q75.70 38.50 73.60 40.82Q71.50 43.15 68.98 44.10Q66.45 45.05 64.15 45.05ZM77.05 44.20L79.65 31.20Q80.25 27.60 80.95 23.80Q81.65 20.00 82.28 16.30Q82.90 12.60 83.25 9.35Q86.10 8.45 89.40 8.02Q92.70 7.60 95.95 7.60Q99.75 7.60 101.13 9.25Q102.50 10.90 102.50 13.70Q102.50 16.25 101.30 18.82Q100.10 21.40 98.18 23.47Q96.25 25.55 93.95 26.75Q94.85 28.75 95.88 31.13Q96.90 33.50 97.80 35.65Q98.30 36.90 98.83 38.15Q99.35 39.40 99.85 40.65L92.10 43.35L90.30 37.35Q89.55 34.85 88.93 32.52Q88.30 30.20 88.20 29.25L87.55 29.45Q87.40 30.25 87.23 31.17Q87.05 32.10 86.85 33.20Q86.65 34.30 86.45 35.32Q86.25 36.35 86.05 37.35L85.15 42.10L77.05 44.20M88.80 22.50Q89.70 22.40 91.03 21.72Q92.35 21.05 93.68 20.05Q95.00 19.05 95.90 18.00Q96.80 16.95 96.80 16.15Q96.80 15.15 95.63 14.82Q94.45 14.50 92.55 14.50L91.45 14.50Q91.15 14.55 90.90 14.55Q90.65 14.55 90.40 14.55L88.80 22.50ZM99.45 44.20L106.00 8.65L121.80 7.30Q121.45 8.40 121.20 9.55Q120.95 10.50 120.73 11.52Q120.50 12.55 120.35 13.35Q119.70 13.40 118.50 13.42Q117.30 13.45 116.05 13.47Q114.80 13.50 113.90 13.50Q113.00 13.50 112.95 13.50L111.20 22.45L114.10 22.30Q114.65 22.25 115.23 22.25Q115.80 22.25 116.35 22.25Q116.90 22.25 117.35 22.25Q117.80 22.25 118.05 22.20Q117.95 22.90 117.88 23.57Q117.80 24.25 117.70 24.95L117.25 27.70Q117.00 27.75 116.60 27.75Q116.20 27.75 115.65 27.75Q115.10 27.80 114.50 27.80Q113.90 27.80 113.35 27.85Q112.70 27.90 112.00 27.90Q111.30 27.90 110.50 27.95L108.80 37.15L116.10 36L115.60 41.70L99.45 44.20Z"/></g></g></svg>