<svg xmlns="http://www.w3.org/2000/svg" viewBox="0 12.109999656677246 184.77000427246094 140.1943359375" data-asc="0.91796875" width="184.77000427246094" height="140.1943359375"><defs/><g fill="#fdfcfc"><g transform="translate(0, 0)"><path d="M29.98 35.40Q29.98 34.25 29.92 33.11Q29.86 31.96 29.76 30.83L28.98 20.12Q28.88 18.80 28.44 18.47Q28.00 18.14 26.86 17.72Q25.63 17.26 25.01 16.76Q24.39 16.26 24.39 14.82Q24.39 13.53 25.15 12.82Q25.90 12.11 27.17 12.11L36.55 12.11Q37.82 12.11 38.57 12.82Q39.33 13.53 39.33 14.82Q39.33 15.97 38.83 16.55Q38.33 17.14 37.61 17.46Q36.89 17.77 36.16 18.04Q35.42 18.31 34.92 18.81Q34.42 19.31 34.42 20.29L34.42 20.43L35.50 30.79Q35.62 32.03 35.68 33.29Q35.74 34.55 35.74 35.79Q35.74 39.16 34.13 41.32Q32.52 43.48 29.94 44.70Q27.37 45.92 24.41 46.40Q21.46 46.88 18.77 46.88Q15.97 46.88 13.31 46.33Q10.64 45.78 8.50 44.48Q6.35 43.19 5.08 40.99Q3.81 38.79 3.81 35.52Q3.81 34.20 3.94 32.90Q4.08 31.59 4.17 30.27L4.88 19.80L4.88 19.65Q4.88 18.87 4.39 18.52Q3.91 18.16 3.17 17.97Q2.44 17.77 1.71 17.49Q0.98 17.21 0.49 16.60Q0 15.99 0 14.82Q0 13.53 0.76 12.82Q1.51 12.11 2.78 12.11L18.70 12.11Q19.97 12.11 20.74 12.82Q21.51 13.53 21.51 14.82Q21.51 16.02 21.04 16.55Q20.58 17.09 19.82 17.35Q19.07 17.60 18.21 18.02Q17.41 18.41 17.18 18.81Q16.94 19.21 16.89 20.09L16.36 27.88Q16.26 29.52 16.15 31.14Q16.04 32.76 16.04 34.40Q16.04 37.79 17.86 39.28Q19.68 40.77 22.92 40.77Q24.68 40.77 26.29 40.28Q27.91 39.79 28.94 38.61Q29.98 37.43 29.98 35.40ZM50.90 20.12Q52.32 20.12 52.67 21.13Q53.03 22.14 53.03 23.27Q53.03 23.41 53.03 23.54Q54.52 22.02 56.40 21.07Q58.28 20.12 60.60 20.12Q63.13 20.12 65.04 21.19Q66.94 22.27 68.20 24.05Q69.46 25.83 70.09 28.04Q70.73 30.25 70.73 32.52Q70.73 36.28 69.24 39.49Q67.75 42.70 64.93 44.65Q62.11 46.61 58.11 46.61Q55.57 46.61 53.52 45.56L53.52 48.19Q53.52 49.05 53.56 49.50Q53.61 49.95 53.86 50.33Q54.10 50.71 54.69 51.34Q55.15 51.83 55.37 52.22Q55.59 52.61 55.59 53.32Q55.59 54.37 54.91 54.96Q54.22 55.54 53.20 55.54L42.80 55.54Q41.75 55.54 41.06 54.98Q40.38 54.42 40.38 53.32Q40.38 52.44 40.71 52.00Q41.04 51.56 41.46 51.22Q41.87 50.88 42.20 50.32Q42.53 49.76 42.53 48.66L42.53 30.03Q42.53 28.91 42.16 28.36Q41.80 27.81 41.31 27.50Q40.82 27.20 40.45 26.81Q40.09 26.42 40.09 25.59Q40.09 24.66 40.73 24.10Q41.38 23.54 42.14 23.22L46.97 21.09Q47.90 20.68 48.89 20.40Q49.88 20.12 50.90 20.12M55.47 26.46Q54.42 26.46 53.52 27.17L53.52 40.06Q53.98 40.50 54.54 40.77Q55.10 41.04 55.79 41.04Q56.98 41.04 57.70 40.25Q58.42 39.45 58.80 38.26Q59.18 37.06 59.30 35.84Q59.42 34.62 59.42 33.74Q59.42 32.79 59.28 31.56Q59.13 30.32 58.72 29.16Q58.30 28.00 57.52 27.23Q56.74 26.46 55.47 26.46ZM89.62 46.41L85.82 46.41Q84.23 46.41 83.26 45.46Q82.30 44.51 81.71 43.16L74.85 27.56Q74.46 26.71 74.19 26.25Q73.93 25.78 73.17 25.17Q72.61 24.71 72.30 24.29Q72.00 23.88 72.00 23.10Q72.00 22.00 72.72 21.45Q73.44 20.90 74.46 20.90L87.62 20.90Q88.65 20.90 89.23 21.48Q89.82 22.07 89.82 23.10Q89.82 23.97 89.36 24.44Q88.89 24.90 88.28 25.23Q87.67 25.56 87.21 26.00Q86.74 26.44 86.74 27.29Q86.74 27.83 86.88 28.36Q87.01 28.88 87.21 29.37L90.94 38.94L94.53 29.76Q94.73 29.22 94.86 28.67Q95.00 28.13 95.00 27.56Q95.00 26.59 94.54 26.11Q94.09 25.63 93.48 25.32Q92.87 25 92.42 24.52Q91.97 24.05 91.97 23.10Q91.97 22.00 92.65 21.45Q93.33 20.90 94.38 20.90L101.15 20.90Q102.20 20.90 102.89 21.44Q103.59 21.97 103.59 23.10Q103.59 24.00 103.26 24.40Q102.93 24.80 102.29 25.37Q101.37 26.20 100.99 26.88Q100.61 27.56 100.15 28.69Q98.58 32.37 97.05 36.10Q95.51 39.82 93.77 43.46Q93.12 44.80 92.16 45.61Q91.21 46.41 89.62 46.41ZM103.34 40.28Q103.34 38.04 104.39 36.54Q105.44 35.03 107.14 34.12Q108.84 33.20 110.82 32.81Q112.79 32.42 114.62 32.42Q115.16 32.42 115.72 32.43Q116.28 32.45 116.82 32.54L116.82 26.20Q116.82 25.59 116.56 24.78Q116.31 23.97 115.53 23.97Q114.77 23.97 114.59 24.60Q114.40 25.22 114.40 25.78Q114.40 26.03 114.42 26.28Q114.43 26.54 114.43 26.81Q114.43 29.32 112.70 30.33Q110.96 31.35 108.74 31.35Q106.88 31.35 105.52 30.52Q104.15 29.69 104.15 27.59Q104.15 26.76 104.48 25.98Q104.81 25.20 105.32 24.58Q106.81 22.78 109.07 21.83Q111.33 20.87 113.83 20.52Q116.33 20.17 118.53 20.17Q121.02 20.17 123.10 20.87Q125.17 21.58 126.42 23.23Q127.66 24.88 127.66 27.66L127.66 38.92Q127.66 39.33 127.86 39.65Q128.05 39.97 128.52 39.97Q128.88 39.97 129.14 39.73Q129.39 39.50 129.76 39.50Q130.47 39.50 130.82 39.99Q131.18 40.48 131.18 41.14Q131.18 42.85 130.14 44.08Q129.10 45.31 127.56 45.96Q126.03 46.61 124.46 46.61Q122.63 46.61 120.76 45.80Q118.90 45.00 118.19 43.29Q116.94 45.02 114.78 45.81Q112.62 46.61 110.55 46.61Q108.64 46.61 106.99 45.89Q105.35 45.17 104.35 43.75Q103.34 42.33 103.34 40.28M114.36 38.13Q114.36 39.11 114.82 39.98Q115.28 40.84 116.41 40.84Q116.63 40.84 116.82 40.80L116.82 35.74Q116.41 35.57 115.97 35.57Q115.04 35.57 114.70 36.49Q114.36 37.40 114.36 38.13ZM146.97 46.41L143.16 46.41Q141.58 46.41 140.61 45.46Q139.65 44.51 139.06 43.16L132.20 27.56Q131.81 26.71 131.54 26.25Q131.27 25.78 130.52 25.17Q129.96 24.71 129.65 24.29Q129.35 23.88 129.35 23.10Q129.35 22.00 130.07 21.45Q130.79 20.90 131.81 20.90L144.97 20.90Q146.00 20.90 146.58 21.48Q147.17 22.07 147.17 23.10Q147.17 23.97 146.70 24.44Q146.24 24.90 145.63 25.23Q145.02 25.56 144.56 26.00Q144.09 26.44 144.09 27.29Q144.09 27.83 144.23 28.36Q144.36 28.88 144.56 29.37L148.29 38.94L151.88 29.76Q152.08 29.22 152.21 28.67Q152.34 28.13 152.34 27.56Q152.34 26.59 151.89 26.11Q151.44 25.63 150.83 25.32Q150.22 25 149.77 24.52Q149.32 24.05 149.32 23.10Q149.32 22.00 150 21.45Q150.68 20.90 151.73 20.90L158.50 20.90Q159.55 20.90 160.24 21.44Q160.94 21.97 160.94 23.10Q160.94 24.00 160.61 24.40Q160.28 24.80 159.64 25.37Q158.72 26.20 158.34 26.88Q157.96 27.56 157.50 28.69Q155.93 32.37 154.39 36.10Q152.86 39.82 151.12 43.46Q150.46 44.80 149.51 45.61Q148.56 46.41 146.97 46.41ZM184.77 29.76Q184.77 31.93 183.48 33.06Q182.20 34.18 180.10 34.18L170.26 34.18Q170.83 36.28 172.27 37.71Q173.71 39.14 176.42 39.14Q177.49 39.14 178.55 38.68Q179.61 38.23 180.55 37.62Q181.49 37.01 182.20 36.56Q182.91 36.11 183.28 36.11Q183.98 36.11 184.30 36.61Q184.62 37.11 184.62 37.74Q184.62 39.97 183.58 41.64Q182.54 43.31 180.85 44.41Q179.15 45.51 177.14 46.06Q175.12 46.61 173.17 46.61Q169.34 46.61 166.41 45.02Q163.48 43.43 161.83 40.56Q160.18 37.70 160.18 33.81Q160.18 29.66 161.78 26.59Q163.38 23.51 166.38 21.81Q169.38 20.12 173.58 20.12Q176.49 20.12 179.04 21.22Q181.59 22.31 183.18 24.46Q184.77 26.61 184.77 29.76M169.82 30.42Q169.82 30.69 169.82 30.96L172.36 30.96Q173.29 30.96 173.63 30.53Q173.97 30.10 173.97 29.22Q173.97 28.64 173.83 27.69Q173.68 26.73 173.25 25.98Q172.83 25.22 172.02 25.22Q171.29 25.22 170.85 25.82Q170.41 26.42 170.19 27.31Q169.97 28.20 169.90 29.05Q169.82 29.91 169.82 30.42Z"/></g><g transform="translate(0, 52.84716796875)"><path d="M28.86 43.24Q28.86 44.65 28.03 45.28Q27.20 45.90 25.88 45.90L11.84 45.90Q10.55 45.90 9.70 45.26Q8.86 44.63 8.86 43.24Q8.86 41.97 9.47 41.33Q10.08 40.70 10.86 40.32Q11.65 39.94 12.26 39.44Q12.87 38.94 12.87 37.92L12.87 34.67L4.35 20.56Q3.78 19.60 3.50 19.04Q3.22 18.48 2.22 17.82Q1.17 17.11 0.59 16.65Q0 16.19 0 14.77Q0 13.35 0.84 12.73Q1.68 12.11 3.00 12.11L16.89 12.11Q18.21 12.11 19.04 12.73Q19.87 13.35 19.87 14.77Q19.87 15.99 19.35 16.60Q18.82 17.21 18.15 17.54Q17.48 17.87 16.96 18.20Q16.43 18.53 16.43 19.19Q16.43 19.68 16.69 20.23Q16.94 20.78 17.19 21.19L21.95 29.37L27.15 20.31Q27.32 20.02 27.48 19.67Q27.64 19.31 27.64 18.97Q27.64 18.41 27.16 18.10Q26.68 17.80 26.07 17.47Q25.46 17.14 24.99 16.53Q24.51 15.92 24.51 14.77Q24.51 13.35 25.34 12.73Q26.17 12.11 27.49 12.11L34.30 12.11Q35.62 12.11 36.45 12.73Q37.28 13.35 37.28 14.77Q37.28 15.89 36.82 16.42Q36.35 16.94 35.52 17.58Q34.69 18.24 34.24 18.81Q33.79 19.38 33.23 20.31L24.88 34.35L24.88 37.92Q24.88 38.94 25.48 39.43Q26.07 39.92 26.87 40.28Q27.66 40.65 28.26 41.28Q28.86 41.92 28.86 43.24ZM48.75 20.12Q52.78 20.12 55.82 21.78Q58.86 23.44 60.57 26.44Q62.28 29.44 62.28 33.50Q62.28 37.48 60.40 40.42Q58.52 43.36 55.36 44.98Q52.20 46.61 48.34 46.61Q44.29 46.61 41.24 44.93Q38.18 43.26 36.49 40.22Q34.79 37.18 34.79 33.13Q34.79 29.17 36.69 26.25Q38.60 23.32 41.77 21.72Q44.95 20.12 48.75 20.12M50.15 41.21Q50.76 41.21 51.01 40.58Q51.27 39.94 51.34 39.17Q51.42 38.40 51.42 37.99Q51.42 36.60 51.20 35.22Q50.98 33.84 50.63 32.50Q50.51 31.96 50.17 30.82Q49.83 29.69 49.34 28.44Q48.85 27.20 48.27 26.32Q47.68 25.44 47.02 25.44Q46.46 25.44 46.20 26.07Q45.95 26.71 45.87 27.48Q45.80 28.25 45.80 28.64Q45.80 29.30 46.00 30.75Q46.19 32.20 46.57 33.98Q46.95 35.77 47.49 37.41Q48.02 39.06 48.69 40.14Q49.37 41.21 50.15 41.21ZM73.71 46.61Q71.39 46.61 69.84 45.42Q68.29 44.24 67.53 42.33Q66.77 40.43 66.77 38.33L66.77 30.03Q66.77 29.13 66.63 28.75Q66.48 28.37 65.80 27.76Q65.26 27.27 64.78 26.84Q64.31 26.42 64.31 25.59Q64.31 24.63 64.93 24.08Q65.55 23.54 66.36 23.22L71.73 21.09Q72.68 20.70 73.65 20.41Q74.61 20.12 75.66 20.12Q76.66 20.12 77.20 20.81Q77.73 21.51 77.73 22.44L77.73 35.69Q77.73 36.38 77.89 37.16Q78.05 37.94 78.52 38.49Q78.98 39.04 79.86 39.04Q80.76 39.04 81.45 38.64Q82.13 38.23 82.69 37.65L82.69 30.03Q82.69 29.10 82.53 28.67Q82.37 28.25 81.62 27.66Q81.05 27.22 80.64 26.81Q80.22 26.39 80.22 25.59Q80.22 24.63 80.85 24.08Q81.47 23.54 82.28 23.22L87.65 21.09Q88.60 20.70 89.56 20.41Q90.53 20.12 91.58 20.12Q92.58 20.12 93.13 20.80Q93.68 21.48 93.68 22.44L93.68 38.55Q93.68 39.23 93.74 39.90Q93.80 40.58 94.29 41.14Q94.90 41.80 95.36 42.24Q95.83 42.68 95.83 43.68Q95.83 44.78 95.17 45.34Q94.51 45.90 93.43 45.90L87.87 45.90Q86.01 45.90 84.61 44.51Q83.20 43.12 83.20 41.28Q81.86 42.58 80.27 43.80Q78.69 45.02 77.01 45.81Q75.34 46.61 73.71 46.61ZM111.94 31.42L111.94 38.55Q111.94 39.97 112.27 40.45Q112.60 40.94 114.01 41.24Q115.26 41.48 116.00 41.81Q116.75 42.14 116.75 43.68Q116.75 44.78 116.09 45.34Q115.43 45.90 114.36 45.90L101.46 45.90Q100.42 45.90 99.73 45.34Q99.05 44.78 99.05 43.68Q99.05 42.80 99.38 42.36Q99.71 41.92 100.13 41.56Q100.56 41.21 100.89 40.64Q101.22 40.06 101.22 38.89L101.22 30.03Q101.22 28.93 100.84 28.38Q100.46 27.83 99.99 27.51Q99.51 27.20 99.13 26.79Q98.75 26.39 98.75 25.59Q98.75 24.63 99.38 24.08Q100 23.54 100.81 23.22L106.91 20.80Q107.50 20.56 108.11 20.34Q108.72 20.12 109.38 20.12Q110.23 20.12 110.64 20.76Q111.06 21.41 111.22 22.25Q111.38 23.10 111.45 23.73Q111.52 24.17 111.60 24.61Q111.67 25.05 111.72 25.49Q112.48 23.24 114.05 21.68Q115.63 20.12 118.41 20.12Q120.39 20.12 121.52 21.09Q122.66 22.07 123.14 23.60Q123.63 25.12 123.63 26.83Q123.63 28.42 123.22 29.90Q122.80 31.37 121.77 32.32Q120.73 33.28 118.85 33.28Q116.80 33.28 115.86 32.64Q114.92 32.01 114.65 31.08Q114.38 30.15 114.37 29.22Q114.36 28.30 114.21 27.66Q114.06 27.03 113.33 27.03Q112.67 27.03 112.38 27.94Q112.08 28.86 112.01 29.91Q111.94 30.96 111.94 31.42Z"/></g><g transform="translate(0, 105.6943359375)"><path d="M0 14.77Q0 13.38 0.83 12.74Q1.66 12.11 2.95 12.11L18.80 12.11Q19.51 12.11 20.19 12.05Q20.87 11.99 21.56 11.82Q22.27 11.65 22.97 11.47Q23.68 11.30 24.44 11.30Q25.83 11.30 26.53 11.82Q27.22 12.33 27.60 13.20Q27.98 14.06 28.37 15.16L28.39 15.21L28.39 15.23Q28.44 15.28 28.48 15.44Q28.52 15.60 28.54 15.67Q28.81 16.43 29.16 17.49Q29.52 18.55 29.80 19.62Q30.08 20.68 30.08 21.46Q30.08 22.58 29.14 23.17Q28.20 23.75 27.20 23.75Q26.15 23.75 25.61 23.24Q25.07 22.73 24.61 21.88Q23.78 20.31 23.17 19.37Q22.56 18.43 21.59 17.99Q20.63 17.55 18.68 17.55L15.50 17.55L15.50 27.76L18.07 27.76Q19.34 27.76 19.81 27.17Q20.29 26.59 20.52 25.82Q20.75 25.05 21.22 24.46Q21.68 23.88 22.92 23.88Q24.85 23.88 25.37 25.90L26.86 32.10Q26.90 32.35 26.95 32.63Q27.00 32.91 27.00 33.18Q27.00 34.23 26.27 34.90Q25.54 35.57 24.49 35.57Q23.73 35.57 23.25 35.21Q22.78 34.84 22.29 34.30Q21.58 33.47 21.11 33.14Q20.63 32.81 20.06 32.74Q19.48 32.67 18.41 32.67L15.50 32.67L15.50 37.89Q15.50 39.09 16.14 39.59Q16.77 40.09 17.59 40.38Q18.41 40.67 19.04 41.26Q19.68 41.85 19.68 43.24Q19.68 44.63 18.87 45.26Q18.07 45.90 16.75 45.90L2.95 45.90Q1.66 45.90 0.83 45.26Q0 44.63 0 43.24Q0 42.02 0.52 41.39Q1.05 40.77 1.75 40.37Q2.44 39.97 2.97 39.45Q3.49 38.94 3.49 37.92L3.49 20.09Q3.49 19.07 2.97 18.54Q2.44 18.02 1.75 17.63Q1.05 17.24 0.52 16.63Q0 16.02 0 14.77ZM40.36 46.61Q38.04 46.61 36.49 45.42Q34.94 44.24 34.18 42.33Q33.42 40.43 33.42 38.33L33.42 30.03Q33.42 29.13 33.28 28.75Q33.13 28.37 32.45 27.76Q31.91 27.27 31.43 26.84Q30.96 26.42 30.96 25.59Q30.96 24.63 31.58 24.08Q32.20 23.54 33.01 23.22L38.38 21.09Q39.33 20.70 40.30 20.41Q41.26 20.12 42.31 20.12Q43.31 20.12 43.85 20.81Q44.38 21.51 44.38 22.44L44.38 35.69Q44.38 36.38 44.54 37.16Q44.70 37.94 45.17 38.49Q45.63 39.04 46.51 39.04Q47.41 39.04 48.10 38.64Q48.78 38.23 49.34 37.65L49.34 30.03Q49.34 29.10 49.18 28.67Q49.02 28.25 48.27 27.66Q47.71 27.22 47.29 26.81Q46.88 26.39 46.88 25.59Q46.88 24.63 47.50 24.08Q48.12 23.54 48.93 23.22L54.30 21.09Q55.25 20.70 56.21 20.41Q57.18 20.12 58.23 20.12Q59.23 20.12 59.78 20.80Q60.33 21.48 60.33 22.44L60.33 38.55Q60.33 39.23 60.39 39.90Q60.45 40.58 60.94 41.14Q61.55 41.80 62.01 42.24Q62.48 42.68 62.48 43.68Q62.48 44.78 61.82 45.34Q61.16 45.90 60.08 45.90L54.52 45.90Q52.66 45.90 51.26 44.51Q49.85 43.12 49.85 41.28Q48.51 42.58 46.92 43.80Q45.34 45.02 43.66 45.81Q41.99 46.61 40.36 46.61ZM76.61 46.61Q72.44 46.61 70.03 44.67Q67.63 42.72 67.63 38.33L67.63 27.71Q67.63 26.66 67.16 26.15Q66.70 25.63 66.09 25.31Q65.48 24.98 65.01 24.50Q64.55 24.02 64.55 23.05Q64.55 22.05 65.26 21.47Q65.97 20.90 66.92 20.90L68.02 20.90Q68.73 20.90 69.42 20.18Q70.12 19.46 70.84 18.38Q71.56 17.31 72.35 16.25Q73.14 15.19 74.05 14.47Q74.95 13.75 76.03 13.75Q77.25 13.75 77.93 14.43Q78.61 15.11 78.61 16.33L78.61 20.90L84.16 20.90Q85.08 20.90 85.74 21.34Q86.40 21.78 86.40 22.80Q86.40 24.17 85.53 24.88Q84.67 25.59 83.45 25.82Q82.23 26.05 81.15 26.05L78.61 26.05L78.61 35.72Q78.61 36.91 79.08 37.98Q79.54 39.04 80.98 39.04Q81.93 39.04 82.60 38.49Q83.28 37.94 83.87 37.40Q84.47 36.87 85.16 36.87Q85.79 36.87 86.05 37.48Q86.30 38.09 86.30 38.57Q86.30 41.04 84.81 42.85Q83.33 44.65 81.09 45.63Q78.86 46.61 76.61 46.61ZM97.39 46.61Q95.07 46.61 93.52 45.42Q91.97 44.24 91.21 42.33Q90.45 40.43 90.45 38.33L90.45 30.03Q90.45 29.13 90.31 28.75Q90.16 28.37 89.48 27.76Q88.94 27.27 88.46 26.84Q87.99 26.42 87.99 25.59Q87.99 24.63 88.61 24.08Q89.23 23.54 90.04 23.22L95.41 21.09Q96.36 20.70 97.33 20.41Q98.29 20.12 99.34 20.12Q100.34 20.12 100.88 20.81Q101.42 21.51 101.42 22.44L101.42 35.69Q101.42 36.38 101.57 37.16Q101.73 37.94 102.20 38.49Q102.66 39.04 103.54 39.04Q104.44 39.04 105.13 38.64Q105.81 38.23 106.37 37.65L106.37 30.03Q106.37 29.10 106.21 28.67Q106.05 28.25 105.30 27.66Q104.74 27.22 104.32 26.81Q103.91 26.39 103.91 25.59Q103.91 24.63 104.53 24.08Q105.15 23.54 105.96 23.22L111.33 21.09Q112.28 20.70 113.24 20.41Q114.21 20.12 115.26 20.12Q116.26 20.12 116.81 20.80Q117.36 21.48 117.36 22.44L117.36 38.55Q117.36 39.23 117.42 39.90Q117.48 40.58 117.97 41.14Q118.58 41.80 119.04 42.24Q119.51 42.68 119.51 43.68Q119.51 44.78 118.85 45.34Q118.19 45.90 117.11 45.90L111.55 45.90Q109.69 45.90 108.29 44.51Q106.88 43.12 106.88 41.28Q105.54 42.58 103.96 43.80Q102.37 45.02 100.70 45.81Q99.02 46.61 97.39 46.61ZM135.62 31.42L135.62 38.55Q135.62 39.97 135.95 40.45Q136.28 40.94 137.70 41.24Q138.94 41.48 139.69 41.81Q140.43 42.14 140.43 43.68Q140.43 44.78 139.77 45.34Q139.11 45.90 138.04 45.90L125.15 45.90Q124.10 45.90 123.41 45.34Q122.73 44.78 122.73 43.68Q122.73 42.80 123.06 42.36Q123.39 41.92 123.82 41.56Q124.24 41.21 124.57 40.64Q124.90 40.06 124.90 38.89L124.90 30.03Q124.90 28.93 124.52 28.38Q124.15 27.83 123.67 27.51Q123.19 27.20 122.81 26.79Q122.44 26.39 122.44 25.59Q122.44 24.63 123.06 24.08Q123.68 23.54 124.49 23.22L130.59 20.80Q131.18 20.56 131.79 20.34Q132.40 20.12 133.06 20.12Q133.91 20.12 134.33 20.76Q134.74 21.41 134.90 22.25Q135.06 23.10 135.13 23.73Q135.21 24.17 135.28 24.61Q135.35 25.05 135.40 25.49Q136.16 23.24 137.73 21.68Q139.31 20.12 142.09 20.12Q144.07 20.12 145.20 21.09Q146.34 22.07 146.83 23.60Q147.31 25.12 147.31 26.83Q147.31 28.42 146.90 29.90Q146.48 31.37 145.45 32.32Q144.41 33.28 142.53 33.28Q140.48 33.28 139.54 32.64Q138.60 32.01 138.33 31.08Q138.06 30.15 138.05 29.22Q138.04 28.30 137.89 27.66Q137.74 27.03 137.01 27.03Q136.35 27.03 136.06 27.94Q135.77 28.86 135.69 29.91Q135.62 30.96 135.62 31.42ZM172.90 29.76Q172.90 31.93 171.62 33.06Q170.34 34.18 168.24 34.18L158.40 34.18Q158.96 36.28 160.40 37.71Q161.84 39.14 164.55 39.14Q165.63 39.14 166.69 38.68Q167.75 38.23 168.69 37.62Q169.63 37.01 170.34 36.56Q171.04 36.11 171.41 36.11Q172.12 36.11 172.44 36.61Q172.75 37.11 172.75 37.74Q172.75 39.97 171.72 41.64Q170.68 43.31 168.98 44.41Q167.29 45.51 165.27 46.06Q163.26 46.61 161.30 46.61Q157.47 46.61 154.54 45.02Q151.61 43.43 149.96 40.56Q148.32 37.70 148.32 33.81Q148.32 29.66 149.91 26.59Q151.51 23.51 154.52 21.81Q157.52 20.12 161.72 20.12Q164.62 20.12 167.18 21.22Q169.73 22.31 171.31 24.46Q172.90 26.61 172.90 29.76M157.96 30.42Q157.96 30.69 157.96 30.96L160.50 30.96Q161.43 30.96 161.77 30.53Q162.11 30.10 162.11 29.22Q162.11 28.64 161.96 27.69Q161.82 26.73 161.39 25.98Q160.96 25.22 160.16 25.22Q159.42 25.22 158.98 25.82Q158.54 26.42 158.33 27.31Q158.11 28.20 158.03 29.05Q157.96 29.91 157.96 30.42Z"/></g></g></svg>