<svg xmlns="http://www.w3.org/2000/svg" viewBox="0 18.579999923706055 228.66000366210938 38.5" data-asc="1.111328125" width="228.66000366210938" height="38.5"><defs/><g fill="#fafafa"><g transform="translate(0, 0)"><path d="M35.21 36.65L35.13 43.51Q35.13 46.66 34.12 49.07Q33.11 51.49 31.45 52.98Q26.93 57.08 18.09 57.08Q9.25 57.08 4.35 52.78Q2.61 51.29 1.43 48.91Q0.24 46.53 0 43.53Q0.12 33.33 0.12 24.66Q0 24.66 0 22.09Q0 19.53 0.22 18.92L0.73 18.92Q4.32 18.73 10.52 18.73Q10.96 18.82 12.12 18.85Q13.28 18.87 13.72 18.92L14.48 19.02Q14.65 23.85 14.70 32.32L14.55 42.14Q14.55 47.02 17.38 47.02Q18.58 47.02 19.40 45.97Q20.21 44.92 20.26 43.60L20.36 43.36L20.43 35.13L20.46 34.40Q20.46 28.74 20.31 23.46L20.26 21.68Q20.21 20.61 20.21 19.75Q20.21 18.90 20.48 18.58Q29.91 18.58 34.69 18.65Q34.86 18.82 35.13 18.97L35.11 18.97L35.38 19.14Q35.18 23.75 35.18 31.01L35.18 35.21L35.21 36.65ZM39.75 39.43L39.79 29.39L39.79 19.21Q39.84 19.19 40.26 19.19L41.16 19.19Q41.67 19.19 41.94 19.14L44.97 19.02Q46.14 18.97 46.78 18.97L50.66 18.97L57.84 18.80Q59.30 18.80 61.06 18.92L61.23 18.92Q62.06 18.87 62.28 18.87Q67.16 18.87 70.63 21.97Q72.31 23.46 73.29 25.81Q74.27 28.15 74.27 30.65Q74.27 33.15 73.75 34.91Q73.24 36.67 72.44 37.89Q69.21 42.82 59.96 43.65L54.69 43.87Q54.44 49.73 54.44 52.98L54.47 53.74L54.47 55.71Q54.37 56.05 54.10 56.18L40.16 56.40Q39.75 55.22 39.75 52.64L39.75 39.43M61.11 28.96Q60.13 26.39 55.93 26.22Q55.32 26.20 54.25 26.20Q53.96 26.20 53.88 33.40L53.83 35.23L53.91 36.69Q56.91 36.65 59.19 35.42Q61.47 34.20 61.47 30.98Q61.47 29.61 61.11 28.96ZM74.05 26.37L83.33 26.34L92.41 26.34Q92.53 27.05 92.65 28.30L93.19 33.62Q93.48 36.65 94.29 43.43L94.34 43.43L96.97 26.34L114.18 26.34L114.11 26.83L114.04 26.83Q109.99 40.99 105.69 55.57L82.10 55.57Q80.30 49.37 79.15 45.34L78.71 43.58Q76.46 34.96 74.05 26.37ZM128.54 39.36L128.78 39.38L129.37 39.38Q130.20 39.38 130.66 39.26L131.98 39.09Q135.35 38.84 136.04 37.28Q136.38 36.50 136.38 35.30Q136.23 35.06 136.23 34.38Q136.23 33.69 135.53 32.93Q134.84 32.18 133.89 32.18L133.76 32.18Q131.42 32.18 131.42 36.16Q131.30 36.35 131.02 36.30Q130.74 36.25 129.66 36.25L117.07 36.25Q117.19 34.57 117.94 32.62Q119.38 28.86 123.52 27.21Q127.66 25.56 131.74 25.42L133.20 25.34L133.98 25.27Q134.13 25.27 134.28 25.34L134.59 25.34L135.69 25.29Q136.04 25.29 137.23 25.46L137.94 25.56Q138.11 25.59 138.48 25.59Q138.84 25.59 140.01 25.74Q141.19 25.90 142.94 26.59Q148.90 28.93 150.17 35.57Q150.71 38.38 150.71 41.80Q150.88 42.36 150.88 42.82L150.76 44.51L150.76 47.34Q150.78 47.39 150.78 47.75L150.73 49.41L150.73 49.63Q150.81 49.76 150.81 49.98L150.78 50.20L150.78 50.71Q150.78 53.03 151.49 55.10L151.73 55.64L140.70 55.64L139.82 55.62Q138.84 55.62 138.33 55.64Q137.55 54.17 136.84 51.64Q136.52 52.29 135.75 53.14Q134.99 53.98 134.62 53.98Q131.01 55.74 129.13 55.98Q126.34 56.45 126.14 56.45Q125.93 56.45 125.93 56.45Q120.09 56.45 117.11 52.39Q115.63 50.32 115.63 47.58Q115.63 41.65 121.14 40.31Q122.56 39.97 126.61 39.60L127.42 39.53L128.54 39.36M136.55 45.02L136.57 44.24Q136.57 43.02 136.38 41.89Q135.84 42.19 134.81 42.55Q133.79 42.92 133.18 43.18Q132.57 43.43 132.07 44.08Q131.57 44.73 131.57 45.85Q131.57 46.97 132.29 47.90Q133.01 48.83 133.86 48.83Q135.69 48.83 136.47 47.51L136.52 47.27L136.55 45.75L136.55 45.02ZM153.10 26.37L162.38 26.34L171.46 26.34Q171.58 27.05 171.70 28.30L172.24 33.62Q172.53 36.65 173.34 43.43L173.39 43.43L176.03 26.34L193.24 26.34L193.16 26.83L193.09 26.83Q189.04 40.99 184.74 55.57L161.16 55.57Q159.35 49.37 158.20 45.34L157.76 43.58Q155.52 34.96 153.10 26.37ZM207.32 25.63Q208.42 25.32 209.67 25.32Q210.91 25.32 212.04 25.42L213.06 25.51Q215.48 25.73 216.77 26.07L216.77 26.05L217.29 26.27Q222.41 27.86 225.27 31.10L225.27 31.08Q225.93 31.86 226.89 33.44Q227.86 35.01 227.86 35.62L228.05 36.28L228.17 36.99Q228.64 38.62 228.64 39.72Q228.64 40.82 228.66 41.41L208.54 41.41L208.54 42.21Q208.69 42.77 208.69 43.38Q208.69 43.99 208.70 44.35Q208.72 44.70 208.76 45.03Q208.81 45.36 208.83 45.57Q208.84 45.78 208.94 46.06Q209.03 46.34 209.05 46.44Q209.06 46.53 209.19 46.83Q209.33 47.12 209.41 47.38Q209.50 47.63 209.74 47.88L209.74 47.85L210.01 48.36Q210.47 48.88 211.28 49.10Q212.62 48.80 213.10 47.71Q213.57 46.61 213.89 44.97Q214.77 44.73 216.38 44.73L219.51 44.80L228.52 44.80Q228.22 47.78 226.76 50.27L226.78 50.27Q225.51 52.27 222.83 53.71Q215.23 56.37 213.09 56.37Q212.70 56.37 212.45 56.32L211.89 56.32L211.67 56.35L211.45 56.35Q211.25 56.35 210.96 56.30Q210.72 56.45 210.38 56.45L208.25 56.20Q208.08 56.27 207.56 56.27Q207.03 56.27 204.81 55.62L204.81 55.64L204.22 55.47L203.64 55.27Q199.98 54.20 197.36 51.50Q194.75 48.80 194.02 45.21Q193.95 44.78 193.75 43.88Q193.55 42.99 193.55 42.68L193.55 41.50Q193.55 41.09 193.58 40.87L193.58 40.50Q193.58 35.33 196.66 31.56Q199.73 27.78 204.91 26.25L205.49 26.07Q206.79 25.85 207.35 25.61L207.32 25.63M214.62 38.18L215.14 37.87Q214.72 35.23 214.36 34.48Q213.99 33.74 213.65 33.20Q213.01 32.18 211.98 32.18Q210.94 32.18 210.21 33.20Q208.91 35.01 208.57 38.28Q210.13 38.18 211.45 38.18L214.62 38.18Z"/></g></g></svg>